<svg width="20" height="22" fill="none" xmlns="http://www.w3.org/2000/svg"><g filter="url(#a)"><path fill-rule="evenodd" clip-rule="evenodd" d="M12 4a2 2 0 1 1-4 0 2 2 0 0 1 4 0zm2 0a4 4 0 1 1-8 0 4 4 0 0 1 8 0zM8 9a4 4 0 0 0-4 4v1h2v-1a2 2 0 0 1 2-2h4a2 2 0 0 1 2 2v1h2v-1a4 4 0 0 0-4-4H8z" fill="#000"/><path d="M10 6.5a2.5 2.5 0 1 0 0-5 2.5 2.5 0 0 0 0 5zM13.5 4a3.5 3.5 0 1 1-7 0 3.5 3.5 0 0 1 7 0zm-9 9A3.5 3.5 0 0 1 8 9.5h4a3.5 3.5 0 0 1 3.5 3.5v.5h-1V13a2.5 2.5 0 0 0-2.5-2.5H8A2.5 2.5 0 0 0 5.5 13v.5h-1V13z" stroke="#000"/><path d="M10 6.5a2.5 2.5 0 1 0 0-5 2.5 2.5 0 0 0 0 5zM13.5 4a3.5 3.5 0 1 1-7 0 3.5 3.5 0 0 1 7 0zm-9 9A3.5 3.5 0 0 1 8 9.5h4a3.5 3.5 0 0 1 3.5 3.5v.5h-1V13a2.5 2.5 0 0 0-2.5-2.5H8A2.5 2.5 0 0 0 5.5 13v.5h-1V13z" stroke="#000" stroke-opacity=".2"/></g><defs><filter id="a" x="0" y="0" width="20" height="22" filterUnits="userSpaceOnUse" color-interpolation-filters="sRGB"><feFlood flood-opacity="0" result="BackgroundImageFix"/><feColorMatrix in="SourceAlpha" values="0 0 0 0 0 0 0 0 0 0 0 0 0 0 0 0 0 0 127 0" result="hardAlpha"/><feOffset dy="4"/><feGaussianBlur stdDeviation="2"/><feComposite in2="hardAlpha" operator="out"/><feColorMatrix values="0 0 0 0 0 0 0 0 0 0 0 0 0 0 0 0 0 0 0.25 0"/><feBlend in2="BackgroundImageFix" result="effect1_dropShadow_19177_847"/><feBlend in="SourceGraphic" in2="effect1_dropShadow_19177_847" result="shape"/></filter></defs></svg>